Coordinates
version=1
nRows=13
nColumns=36
inDegrees=yes

Units are S.I. units (second, meters, Newtons, ...)
If the header above contains a line with 'inDegrees', this indicates whether rotational values are in degrees (yes) or radians (no).

endheader
time	pelvis_tilt	pelvis_list	pelvis_rotation	pelvis_tx	pelvis_ty	pelvis_tz	hip_flexion_r	hip_adduction_r	hip_rotation_r	knee_angle_r	knee_angle_r_beta	ankle_angle_r	subtalar_angle_r	mtp_angle_r	hip_flexion_l	hip_adduction_l	hip_rotation_l	knee_angle_l	knee_angle_l_beta	ankle_angle_l	subtalar_angle_l	mtp_angle_l	lumbar_extension	lumbar_bending	lumbar_rotation	arm_flex_r	arm_add_r	arm_rot_r	elbow_flex_r	pro_sup_r	arm_flex_l	arm_add_l	arm_rot_l	elbow_flex_l	pro_sup_l
      4.36666670	     -6.86628070	      1.20605380	     -0.66722109	      0.87884054	      1.00404665	      0.03936731	     17.33342613	     -6.49590171	     -8.02605162	     14.67636082	      0.25615082	      5.70807531	    -11.78351447	     -7.49999987	     19.85931321	     -7.47875749	    -15.98972607	     19.98306890	      0.34877035	      2.62419414	     -7.09122334	     -7.49999987	    -26.65486267	     -1.33261229	      0.33515674	      6.16848870	     -9.95102772	      2.26640279	     24.22409034	     90.00025587	     10.81309951	     -9.20550618	      2.09285452	     25.37507746	     80.92178876
      4.38333330	     -6.62300685	      1.17824836	     -0.61505619	      0.87924791	      1.00810322	      0.03910800	     15.45372065	     -5.90222098	     -7.76207153	     11.47772505	      0.20032409	      4.38568625	    -12.08054326	     -7.49999987	     17.87438573	     -6.85617720	    -15.26012639	     16.60029960	      0.28972988	      1.40246910	     -7.34726218	     -7.49999987	    -25.10275128	     -1.34245376	      0.56451485	      3.34387956	    -10.20335618	      1.16466782	     21.56739063	     89.46452573	      8.43384796	     -9.64595090	      1.26393859	     24.08227115	     80.84046834
      4.40000000	     -6.63439230	      1.32711213	     -0.71587882	      0.88846488	      1.01257720	      0.03203824	     14.11691562	     -5.80321563	     -7.93759997	      9.05692520	      0.15807316	      3.08309677	    -11.71878707	     -7.49999987	     16.17527594	     -6.12551084	    -14.93062080	     13.71094660	      0.23930116	      0.40770687	     -7.02955412	     -7.49999987	    -23.04710063	     -1.36680405	      0.28642461	      0.57532445	    -10.72985990	      0.54471053	     20.84259080	     89.15697920	      5.28674781	     -9.80061468	      0.74855319	     22.16163756	     80.73752281
      4.41666670	     -6.06248833	      1.40784508	     -0.72870606	      0.89813698	      1.01211766	      0.03266061	     11.92817761	     -5.66600549	     -7.88604669	      6.68884322	      0.11674234	      2.19463796	    -11.84086153	     -7.49999987	     13.78983214	     -5.43439705	    -14.14574880	     10.88390751	      0.18996002	     -0.39544277	     -7.50234200	     -7.49999987	    -21.50809434	     -1.31357907	      0.55450506	     -2.87275525	    -11.20731311	     -3.05615676	     20.27376360	     87.15164386	      2.83167866	     -9.32606106	     -1.26513917	     18.91000456	     80.08483795
      4.43333330	     -5.64196581	      1.51302853	     -0.65652350	      0.90149476	      1.01437890	      0.02929791	      9.96689301	     -5.68611579	     -8.20322947	      4.42621326	      0.07725199	      1.21374772	    -11.75289803	     -7.49999987	     11.52268488	     -4.70987374	    -13.66574537	      7.91791891	      0.13819375	     -0.84019050	     -6.92644590	     -7.49999987	    -19.93273345	     -1.07481086	      0.56229164	     -5.58352378	    -12.11198671	     -3.48909449	     19.81172482	     86.17850647	     -0.11898077	     -9.12872592	     -1.57217072	     17.52975684	     79.28037465
      4.45000000	     -5.02256814	      1.47174038	     -0.55704755	      0.91039477	      1.01185191	      0.03042837	      7.82331943	     -5.52848121	     -8.20618973	      2.46025970	      0.04293963	      0.66865073	    -11.92630903	     -7.49999987	      9.21560311	     -4.27287619	    -12.80045119	      5.47462204	      0.09555018	     -1.00272805	     -7.18257742	     -7.49999987	    -18.44070135	     -0.65587444	      1.12148980	     -9.92923623	    -12.77764470	     -6.81464731	     22.36492193	     84.04606073	     -3.02098094	     -9.11054194	     -4.00224926	     16.55873431	     78.43196543
      4.46666670	     -4.69722567	      1.44688268	     -0.48640497	      0.90827011	      1.00912984	      0.03087307	      6.48378505	     -5.44265730	     -8.27317048	      1.22709425	      0.02141683	      0.57363403	    -12.05952905	     -7.49999987	      7.54785117	     -3.95873456	    -12.20841543	      3.39766601	      0.05930046	     -0.81909205	     -6.98976046	     -7.49999987	    -16.85340621	     -0.24886792	      1.26427187	    -12.85934716	    -13.72562683	     -7.00582678	     22.39256659	     83.85694297	     -5.92552116	     -9.48952732	     -4.22840134	     16.10624089	     78.31445335
      4.48333330	     -4.11702103	      1.33634856	     -0.44594934	      0.91180338	      1.00721097	      0.03493929	      5.24473276	     -5.21446685	     -7.91593627	      0.65350751	      0.01140586	      0.95180397	    -12.36359044	     -7.49999987	      5.83194393	     -3.93432473	    -11.43424414	      1.81833379	      0.03173591	     -0.54680510	     -7.21042767	     -7.49999987	    -16.01651218	      0.20358680	      2.08289980	    -16.06559366	    -14.42312863	     -7.41286021	     24.34078135	     83.02620400	     -8.67201298	     -9.98426680	     -5.32158487	     17.58515157	     77.66494695
      4.50000000	     -3.90994061	      1.19523094	     -0.31603094	      0.90964888	      1.00263882	      0.03523142	      4.68438500	     -4.98250067	     -7.90475393	      0.46990238	      0.00820134	      1.62712603	    -12.45541646	     -7.49999987	      5.00130300	     -4.06349356	    -10.84444263	      0.94482258	      0.01649026	      0.09092226	     -7.18336653	     -7.49999987	    -14.89707079	      0.58786645	      2.13595489	    -18.78130219	    -15.10678439	     -7.22115946	     27.48409507	     80.31196519	    -11.32949958	    -10.41147123	     -6.10816422	     18.91927934	     75.53107181
      4.51666670	     -3.84774779	      1.04470520	     -0.14868107	      0.90447870	      1.00015609	      0.03878918	      4.55126892	     -4.69852505	     -7.55432576	      0.39486951	      0.00689177	      2.02465434	    -13.13110473	     -7.49999987	      4.71542796	     -4.31742499	    -10.51505840	      0.55652632	      0.00971322	      0.89296339	     -6.74597750	     -7.49999987	    -13.91720635	      0.93856115	      2.14052555	    -20.84736222	    -15.83365530	     -6.87103465	     29.10411335	     80.00226491	    -12.96209120	    -11.19053103	     -6.18825303	     19.07666513	     75.37408930
      4.53333330	     -3.61847641	      0.82599972	      0.12472329	      0.90714804	      0.99902103	      0.04198558	      4.25715820	     -4.31666511	     -7.29576694	      0.38058042	      0.00664238	      2.42113828	    -13.74528289	     -7.49999987	      4.36784602	     -4.69505038	    -10.08690233	      0.39528535	      0.00689903	      1.71108775	     -6.35988655	     -7.49999987	    -13.23683050	      1.31560343	      1.97587209	    -22.84213420	    -16.40458366	     -6.79218150	     30.68850469	     79.67405904	    -14.53610493	    -12.08524204	     -6.44982280	     19.53372554	     75.11319987
      4.55000000	     -3.25576962	      0.63353672	      0.28721709	      0.90706185	      1.00272088	      0.04180045	      3.83976858	     -3.97537592	     -7.10697229	      0.40865187	      0.00713232	      2.63213437	    -14.25506453	     -7.49999987	      3.91871466	     -5.05155032	     -9.81769412	      0.31247607	      0.00545374	      2.38187809	     -5.97123799	     -7.49999987	    -12.88759320	      1.59734796	      1.90151870	    -23.78817328	    -16.74362345	     -6.72978083	     31.15597680	     77.96741940	    -15.06359762	    -12.47643629	     -7.13566172	     19.28638727	     73.59720856
      4.56666670	     -2.98218472	      0.45653875	      0.47339224	      0.90563391	      1.00163703	      0.04130021	      3.55035298	     -3.69953224	     -6.82548577	      0.46165483	      0.00805740	      2.55875933	    -15.03679644	     -7.49999987	      3.63811874	     -5.34320111	     -9.50576728	      0.27706583	      0.00483571	      2.87566448	     -5.81918776	     -7.49999987	    -12.45192710	      1.94950304	      1.92032570	    -24.20783099	    -17.10921909	     -6.29770817	     30.81270886	     76.79244914	    -15.17688062	    -12.79859602	     -7.41742335	     18.52214673	     72.42348242
